<svg version="1.1" xmlns="http://www.w3.org/2000/svg" xmlns:xlink="http://www.w3.org/1999/xlink" x="0px" y="0px"
	 viewBox="0 0 24 24" xml:space="preserve">
<g>
<path d="M24 11.9601C24.0011 12.4667 23.8638 12.9631 23.6042 13.3918C23.3445 13.8204 22.9732 14.1636 22.5334 14.3814L3.68678 23.6656C3.34184 23.8611 2.95972 23.9753 2.56756 24C2.13842 23.9991 1.71631 23.8865 1.33968 23.6726C0.963042 23.4587 0.643839 23.1503 0.41113 22.7753C0.178421 22.4004 0.0395977 21.9708 0.00729841 21.5258C-0.0250009 21.0808 0.0502501 20.6345 0.2262 20.2275L3.15933 13.2979H10.2863C10.6275 13.2979 10.9547 13.1569 11.196 12.906C11.4372 12.6551 11.5728 12.3149 11.5728 11.9601C11.5728 11.6053 11.4372 11.265 11.196 11.0141C10.9547 10.7633 10.6275 10.6223 10.2863 10.6223H3.15933L0.2262 3.75956C0.0136664 3.26085 -0.0472013 2.70651 0.0517551 2.17081C0.150711 1.63512 0.404763 1.14368 0.779862 0.762354C1.15496 0.381027 1.63318 0.128037 2.15044 0.0372872C2.6677 -0.0534621 3.19927 0.0223664 3.67392 0.25461L22.5206 9.53872C22.9628 9.75463 23.3367 10.097 23.5987 10.5258C23.8607 10.9546 23.9999 11.4521 24 11.9601Z" [attr.fill]="fillColor"/>
</g>
</svg>