<svg xmlns="http://www.w3.org/2000/svg" xmlns:xlink="http://www.w3.org/1999/xlink" width="400" height="400" viewBox="0, 0, 400,400"><g><path d="M147.458 7.585 C 121.970 10.778,87.379 21.724,68.929 32.433 C -22.724 85.632,-16.539 275.112,77.341 290.124 C 92.627 292.568,93.781 294.810,96.772 327.880 C 99.724 360.525,94.981 381.146,84.232 382.394 C 77.851 383.135,74.841 385.802,73.710 391.716 C 72.077 400.260,77.149 402.851,83.357 396.643 C 85.573 394.427,90.692 394.427,98.419 396.643 C 104.857 398.489,123.981 400.000,140.916 400.000 L 171.707 400.000 170.186 389.638 C 168.708 379.563,154.659 366.245,150.206 370.698 C 147.214 373.690,138.657 365.982,140.915 362.328 C 149.658 348.181,179.661 368.229,179.661 388.217 C 179.661 398.899,180.615 400.333,187.092 399.388 C 193.688 398.427,195.999 392.405,207.648 345.829 C 214.866 316.967,221.437 292.687,222.250 291.874 C 228.280 285.845,226.306 301.521,215.704 343.874 C 201.846 399.233,201.737 400.000,207.730 400.000 C 210.541 400.000,216.589 380.897,224.900 345.763 C 234.101 306.866,239.105 291.525,242.594 291.525 C 248.568 291.525,248.700 289.916,241.064 310.169 C 229.108 341.884,227.557 400.000,238.666 400.000 C 241.880 400.000,242.564 393.382,241.409 373.441 C 239.801 345.664,245.933 315.736,256.555 299.526 C 261.231 292.389,264.339 291.525,285.358 291.525 C 322.969 291.525,322.849 291.691,320.050 243.846 L 317.684 203.390 331.475 203.390 C 349.551 203.390,351.335 195.732,337.188 178.874 C 330.814 171.278,322.058 152.990,315.278 133.111 C 272.982 9.102,253.236 -5.668,147.458 7.585 M243.288 19.179 C 261.372 30.446,284.309 72.668,303.767 130.508 C 310.039 149.153,319.726 170.878,325.294 178.788 L 335.417 193.168 321.632 195.373 L 307.848 197.577 310.264 239.466 L 312.680 281.356 264.285 281.356 L 215.889 281.356 188.453 253.370 C 152.165 216.353,138.880 197.140,146.591 192.824 C 194.269 166.142,203.844 97.181,164.855 61.274 C 137.241 35.842,208.579 -2.445,243.288 19.179 M161.017 27.119 C 148.659 39.774,146.501 40.678,128.631 40.678 C 101.706 40.678,87.089 46.205,89.413 55.507 C 90.784 60.993,88.452 64.518,79.639 70.282 C 73.273 74.446,64.572 84.062,60.303 91.650 C 53.616 103.538,51.212 105.263,42.929 104.115 C 31.079 102.474,27.119 110.734,27.119 137.095 C 27.119 170.245,53.867 210.911,67.536 198.541 C 76.684 190.262,92.536 199.879,89.523 211.881 C 87.022 221.849,103.599 227.964,132.039 227.563 C 151.415 227.291,151.771 227.463,165.501 243.746 L 179.379 260.204 165.113 265.398 C 90.085 292.717,51.851 284.839,28.049 237.157 C -24.000 132.890,47.137 17.679,165.942 13.829 C 173.894 13.571,173.679 14.152,161.017 27.119 M140.428 50.444 C 142.080 53.115,101.753 58.158,98.781 55.652 C 96.781 53.965,119.619 48.093,129.461 47.763 C 134.478 47.595,139.413 48.801,140.428 50.444 M155.985 70.678 C 177.070 81.872,186.612 120.469,174.967 147.458 C 170.838 157.026,170.671 156.488,172.133 138.340 C 176.199 87.870,116.960 64.605,87.988 105.293 C 57.499 148.110,110.644 200.361,154.612 170.795 L 167.797 161.928 159.758 170.604 C 155.337 175.375,146.424 181.792,139.952 184.863 C 131.056 189.085,128.603 192.051,129.902 197.017 C 131.443 202.911,130.341 203.354,119.200 201.319 C 78.289 193.848,54.205 163.293,58.780 124.664 C 64.186 79.020,116.731 49.837,155.985 70.678 M145.474 99.851 C 174.539 114.881,168.945 160.068,136.908 169.052 C 116.458 174.787,93.358 160.671,89.495 140.079 C 83.623 108.780,116.731 84.987,145.474 99.851 M248.305 104.993 C 240.381 108.590,233.898 113.133,233.898 115.089 C 233.898 119.967,240.715 119.352,250.847 113.559 C 255.508 110.895,264.280 108.661,270.339 108.595 C 277.819 108.513,281.356 106.842,281.356 103.390 C 281.356 96.245,265.930 96.993,248.305 104.993 M108.721 117.406 C 99.829 128.710,99.791 139.051,108.607 148.513 C 123.713 164.728,150.282 153.965,150.282 131.631 C 150.282 109.924,122.174 100.304,108.721 117.406 M49.090 135.979 C 49.723 146.464,53.419 161.243,57.322 168.894 C 70.336 194.402,63.065 198.640,47.742 174.479 C 36.689 157.049,32.463 139.675,35.697 124.951 C 39.544 107.436,47.777 114.215,49.090 135.979 M252.164 123.195 C 240.513 133.216,243.028 140.787,259.004 143.784 C 273.976 146.593,284.746 141.272,284.746 131.067 C 284.746 114.212,267.461 110.036,252.164 123.195 M139.665 127.262 C 143.012 134.606,142.559 136.914,136.601 142.871 C 127.830 151.643,116.125 148.717,113.189 137.018 C 108.752 119.340,132.131 110.726,139.665 127.262 M274.576 130.508 C 274.576 133.943,271.140 135.593,263.992 135.593 C 254.968 135.593,254.029 134.844,257.627 130.508 C 259.948 127.712,264.711 125.424,268.212 125.424 C 271.712 125.424,274.576 127.712,274.576 130.508 M139.965 215.254 C 139.573 217.119,135.826 219.173,131.639 219.819 C 122.428 221.240,97.502 214.211,99.618 210.788 C 101.914 207.073,140.781 211.375,139.965 215.254 M384.786 224.576 C 394.258 253.170,386.753 283.878,367.155 296.719 C 359.273 301.884,356.636 308.475,362.452 308.475 C 385.595 308.475,407.319 250.073,393.666 224.562 C 388.271 214.482,381.447 214.493,384.786 224.576 M368.740 245.218 C 370.116 261.817,369.329 264.356,359.246 275.840 C 347.709 288.980,347.407 294.512,358.552 288.548 C 373.538 280.528,382.976 253.229,376.580 236.405 C 370.893 221.447,367.120 225.688,368.740 245.218 M349.153 246.343 C 349.153 251.324,346.620 258.197,343.524 261.618 C 337.228 268.575,339.297 273.092,347.362 269.997 C 354.122 267.403,360.094 251.841,357.485 243.620 C 354.499 234.211,349.153 235.959,349.153 246.343 M199.854 278.089 L 211.573 288.106 201.950 327.952 C 190.525 375.256,190.490 375.331,184.186 366.331 C 176.462 355.303,159.835 348.182,146.763 350.303 C 137.067 351.877,135.525 351.266,136.975 346.425 C 137.921 343.264,142.005 327.304,146.050 310.957 C 153.260 281.820,153.679 281.110,167.380 274.802 C 185.712 266.362,186.192 266.411,199.854 278.089 M142.373 286.674 C 142.373 293.323,124.155 358.723,120.139 366.488 C 117.453 371.683,115.254 379.061,115.254 382.883 C 115.254 386.704,113.896 389.831,112.236 389.831 C 109.695 389.831,117.005 356.537,132.517 297.458 C 135.237 287.097,142.373 279.289,142.373 286.674 M115.807 323.603 C 111.014 343.110,106.845 358.746,106.543 358.349 C 106.240 357.952,105.169 341.992,104.164 322.881 L 102.335 288.136 113.428 288.136 L 124.521 288.136 115.807 323.603 M136.310 386.399 C 137.134 392.015,137.435 396.610,136.978 396.610 C 131.037 396.610,125.424 390.944,125.424 384.948 C 125.424 369.224,133.956 370.361,136.310 386.399 M158.723 387.569 C 159.357 390.839,157.656 393.220,154.686 393.220 C 148.388 393.220,144.588 387.694,147.568 382.872 C 150.634 377.911,157.403 380.761,158.723 387.569" fill="#000"></path></g></svg>
