<svg xmlns="http://www.w3.org/2000/svg" viewBox="0 0 400,163.26530612244898">
  <g>
    <path d="M306.871 0.204 C 306.732 0.343,304.715 0.641,302.390 0.866 C 279.608 3.070,259.904 12.946,237.322 33.477 C 222.456 46.992,219.040 51.928,221.639 56.133 C 224.726 61.127,228.093 59.942,238.218 50.297 C 257.258 32.159,268.284 24.120,281.672 18.618 C 321.889 2.088,370.932 23.134,384.153 62.596 C 394.050 92.136,379.131 125.390,349.055 140.828 C 346.048 142.371,346.072 142.385,344.890 138.367 C 343.808 134.693,343.239 133.819,339.167 129.592 C 333.942 124.166,329.770 114.182,329.298 105.976 L 329.184 103.992 333.061 103.870 C 350.007 103.335,362.598 85.912,359.849 66.801 C 356.056 40.434,331.807 18.609,314.094 25.622 C 312.149 26.392,311.998 26.396,310.421 25.723 C 292.192 17.950,266.170 37.451,277.987 50.029 C 278.735 50.825,278.748 50.986,278.181 52.344 C 277.128 54.864,276.675 57.584,276.394 63.061 L 276.122 68.367 274.815 68.494 C 274.096 68.563,273.085 68.401,272.570 68.132 L 271.633 67.644 272.622 68.720 C 273.215 69.365,274.047 69.796,274.697 69.796 C 277.068 69.796,276.505 70.749,270.285 77.271 C 265.247 82.554,265.005 83.469,268.163 85.306 C 270.361 86.585,271.057 89.311,269.410 90.192 C 268.374 90.747,268.362 91.253,269.339 93.170 C 269.986 94.438,270.018 94.749,269.543 95.143 C 268.554 95.964,268.933 97.194,270.662 98.775 C 272.223 100.202,272.327 100.428,272.091 101.892 C 271.209 107.363,271.191 107.205,272.917 108.931 C 275.237 111.252,276.516 111.500,287.619 111.786 L 297.483 112.041 299.252 113.274 C 305.952 117.947,310.622 135.752,308.294 147.750 C 307.671 150.958,300.187 150.682,288.163 147.008 C 266.086 140.261,251.534 128.359,210.229 83.265 C 164.082 32.884,151.470 21.236,132.485 11.460 C 115.503 2.716,104.658 0.357,84.082 0.931 C 43.028 2.076,6.633 32.593,1.221 70.408 C 0.932 72.429,0.539 74.256,0.348 74.469 C -0.151 75.026,-0.094 88.465,0.408 88.776 C 0.633 88.914,0.818 89.614,0.820 90.330 C 0.825 92.569,2.739 100.962,4.296 105.579 C 14.868 136.914,46.842 160.271,81.954 162.308 C 84.487 162.455,86.656 162.730,86.774 162.920 C 87.052 163.370,91.316 163.370,91.594 162.919 C 91.712 162.729,93.789 162.453,96.210 162.305 C 121.958 160.735,142.908 149.591,170.343 122.874 C 180.512 112.970,182.175 109.426,178.415 105.666 C 174.816 102.067,172.923 102.900,162.603 112.624 C 135.676 137.997,120.284 147.023,99.435 149.668 C 93.002 150.484,93.316 150.667,91.592 145.096 C 89.032 136.823,89.121 137.414,89.980 134.369 C 90.408 132.850,90.872 129.453,91.024 126.735 C 91.411 119.762,92.819 115.563,95.232 114.183 C 95.882 113.812,99.048 113.674,106.939 113.674 C 119.232 113.673,119.921 113.529,120.833 110.765 C 121.467 108.845,121.117 105.456,120.075 103.413 C 119.121 101.543,119.671 99.852,121.451 99.175 C 122.695 98.702,122.884 95.851,121.754 94.603 C 121.095 93.874,121.115 93.790,122.150 92.938 C 123.791 91.587,124.207 90.082,123.354 88.589 C 122.195 86.562,123.902 84.916,127.174 84.904 C 131.485 84.888,131.589 81.991,127.535 74.862 C 122.457 65.932,122.306 65.339,123.714 59.864 C 124.791 55.676,124.613 53.761,122.624 48.163 C 121.503 45.007,121.031 42.909,120.833 40.204 C 120.002 28.810,105.485 22.012,84.082 22.992 C 61.154 24.042,49.278 33.285,46.507 52.238 C 45.025 62.376,49.454 80.418,54.451 84.595 C 61.073 90.131,58.638 103.236,48.977 114.056 C 45.428 118.030,43.176 122.470,40.387 130.991 C 39.503 133.693,39.266 133.577,33.163 127.478 C 7.046 101.372,6.238 64.464,31.197 37.655 C 51.224 16.144,84.911 7.420,112.600 16.573 C 134.348 23.762,150.628 37.147,189.995 80.204 C 195.332 86.041,203.652 95.133,208.484 100.408 C 242.817 137.890,262.179 152.728,285.185 159.188 C 295.414 162.061,310.118 163.906,314.898 162.918 C 316.020 162.686,318.942 162.291,321.390 162.041 C 355.436 158.555,385.287 136.097,395.691 106.141 C 397.149 101.944,399.184 92.892,399.184 90.603 C 399.184 89.961,399.367 89.322,399.592 89.184 C 400.095 88.873,400.152 74.836,399.651 74.527 C 399.460 74.408,399.187 73.201,399.045 71.845 C 395.758 40.397,368.782 11.939,334.286 3.525 C 325.260 1.324,307.859 -0.784,306.871 0.204 " stroke="none" fill="#000000" fill-rule="evenodd"/>
  </g>
</svg>