<?xml version="1.0" standalone="no"?>
<!DOCTYPE svg PUBLIC "-//W3C//DTD SVG 20010904//EN"
 "http://www.w3.org/TR/2001/REC-SVG-20010904/DTD/svg10.dtd">
<svg version="1.0" xmlns="http://www.w3.org/2000/svg"
 width="768.000000pt" height="768.000000pt" viewBox="0 0 768.000000 768.000000"
 preserveAspectRatio="xMidYMid meet">
<metadata>
Created by potrace 1.14, written by Peter Selinger 2001-2017
</metadata>
<g transform="translate(0.000000,768.000000) scale(0.100000,-0.100000)"
fill="#000000" stroke="none">
<path d="M434 5918 c-3 -4 -11 -5 -19 -1 -8 3 -15 1 -16 -3 -1 -5 -2 -939 -3
-2076 -1 -1830 1 -2068 14 -2074 19 -7 184 -9 196 -2 5 3 18 2 29 -2 11 -4 30
-4 41 1 12 4 25 5 28 2 7 -7 192 -7 203 0 5 3 8 750 8 1660 0 910 3 1653 8
1650 4 -2 7 -10 7 -17 0 -7 8 -39 19 -72 10 -32 26 -86 35 -119 10 -33 20 -67
23 -75 3 -8 7 -21 9 -28 3 -16 34 -122 42 -142 3 -8 6 -19 7 -25 2 -5 20 -66
40 -135 20 -69 50 -170 66 -225 17 -55 32 -107 34 -115 2 -8 20 -69 40 -135
20 -66 37 -124 39 -130 1 -5 5 -16 9 -22 5 -7 6 -13 2 -13 -3 0 -1 -8 4 -18 6
-11 12 -30 15 -43 3 -13 14 -55 26 -94 11 -38 22 -74 24 -80 1 -5 8 -30 15
-55 7 -25 15 -52 18 -60 3 -8 7 -19 8 -25 2 -5 11 -37 21 -70 10 -33 19 -64
20 -70 1 -5 17 -57 34 -115 18 -58 33 -109 35 -115 1 -5 4 -17 7 -25 3 -8 11
-35 18 -60 7 -25 16 -56 21 -70 4 -14 22 -74 39 -135 17 -60 34 -117 38 -125
3 -8 6 -19 7 -25 0 -5 5 -18 11 -27 9 -16 28 -17 188 -15 l178 2 13 40 c11 34
31 101 41 140 8 32 76 263 81 275 10 24 22 65 27 91 2 8 6 21 9 29 3 8 15 49
27 90 12 41 25 86 30 100 11 33 80 265 85 288 7 33 43 151 49 160 3 5 7 19 10
33 3 13 14 56 26 94 12 39 23 77 25 85 2 8 20 69 40 135 21 66 38 125 39 130
1 6 11 37 21 70 10 33 19 66 21 73 3 14 32 114 44 152 12 37 51 169 54 183 2
7 5 19 8 27 6 14 19 60 68 228 11 39 22 72 23 72 1 0 2 -746 1 -1658 0 -911 1
-1661 3 -1667 3 -9 117 -10 156 -1 9 2 17 0 17 -4 0 -5 14 -5 30 0 17 5 30 5
30 0 0 -5 13 -5 30 0 17 5 30 5 30 0 0 -5 13 -5 29 0 15 4 34 4 42 -1 7 -4 18
-4 24 1 6 5 17 5 25 0 7 -4 23 -5 35 0 12 5 27 5 35 0 7 -4 24 -4 39 -1 l26 7
0 2073 c0 1140 -2 2076 -5 2079 -7 10 -70 9 -70 -1 0 -4 -4 -6 -9 -3 -12 8
-149 11 -156 4 -3 -3 -22 -2 -41 2 -20 5 -34 4 -34 -2 0 -5 -6 -6 -12 -1 -19
11 -102 10 -110 -2 -5 -7 -8 -7 -8 0 0 6 -55 9 -147 8 -82 -1 -148 -2 -148 -3
0 -1 -17 -2 -38 -3 -20 -1 -37 1 -37 5 0 4 -13 3 -30 -2 -17 -5 -30 -5 -30 0
0 5 -13 5 -30 0 -17 -5 -30 -5 -30 0 0 5 -13 5 -28 0 -16 -4 -36 -4 -45 1 -10
6 -18 5 -22 -1 -4 -7 -14 -6 -28 2 -12 6 -22 11 -22 10 0 -5 -54 -19 -59 -15
-7 8 -66 10 -66 3 0 -3 -20 -5 -45 -5 -25 0 -45 2 -45 5 0 7 -89 2 -107 -5 -7
-2 -13 -1 -13 3 0 4 -60 6 -132 5 -73 -1 -133 -2 -133 -3 0 -1 -21 -2 -48 -3
-26 -1 -47 1 -47 5 0 4 -13 3 -30 -2 -17 -5 -30 -5 -30 0 0 5 -13 5 -30 0 -17
-5 -30 -5 -30 0 0 5 -13 5 -29 0 -15 -4 -34 -4 -42 1 -7 4 -18 4 -24 -1 -6 -5
-17 -5 -24 -1 -7 5 -28 5 -47 1 -19 -4 -34 -4 -34 1 0 5 -11 4 -25 -1 -15 -6
-27 -6 -30 0 -3 6 -15 6 -29 0 -13 -5 -27 -6 -30 -3 -8 9 -287 9 -292 1 -3 -4
-16 -3 -29 2 -17 6 -25 6 -25 -1 0 -6 -5 -7 -12 -3 -16 10 -109 11 -115 2 -2
-5 -12 -4 -22 1 -10 6 -23 6 -31 1 -8 -5 -18 -6 -23 -3 -13 8 -118 9 -123 1z"/>
<path d="M4253 5922 l-23 -3 0 -2074 c0 -1426 3 -2076 10 -2080 13 -8 193 -10
206 -3 5 3 18 2 29 -2 11 -4 30 -4 41 1 12 4 25 5 28 2 7 -8 66 -10 66 -3 0 3
20 5 45 5 25 0 45 -2 45 -5 0 -3 15 -4 32 -3 18 1 45 2 61 2 l27 1 0 885 c0
487 3 885 8 886 10 1 569 1 607 0 27 -1 35 -8 58 -54 16 -28 37 -68 49 -87 11
-19 32 -55 46 -80 14 -25 33 -57 43 -72 11 -14 19 -29 19 -33 0 -4 8 -19 19
-33 10 -15 29 -45 41 -67 12 -22 70 -122 129 -223 58 -100 111 -192 117 -203
7 -11 17 -26 23 -32 6 -6 11 -19 11 -28 0 -10 4 -19 8 -21 6 -2 138 -224 189
-318 8 -14 25 -43 39 -65 13 -22 30 -51 37 -65 6 -14 14 -27 18 -30 3 -3 19
-30 36 -60 78 -142 165 -286 180 -297 9 -7 19 -10 22 -5 7 9 81 9 81 0 0 -4
14 -3 30 2 19 5 30 5 30 -1 0 -6 4 -8 8 -5 10 6 83 8 135 4 20 -2 37 -1 37 2
0 3 18 5 40 5 22 0 40 -3 40 -7 0 -4 14 -3 30 2 17 5 30 5 30 1 0 -4 27 -4 60
-1 33 3 60 3 60 0 0 -3 16 -5 35 -5 40 0 43 9 15 45 -11 14 -20 28 -20 32 0 4
-45 82 -100 174 -55 92 -100 169 -100 171 0 3 -8 17 -19 31 -10 15 -29 47 -43
72 -31 57 -178 304 -230 388 -21 34 -36 62 -33 62 3 0 -3 10 -15 22 -11 12
-20 26 -20 30 0 5 -18 37 -40 72 -22 35 -40 68 -40 75 0 6 -4 11 -10 11 -5 0
-10 5 -10 10 0 6 -11 27 -23 48 -13 20 -32 51 -43 67 -10 17 -19 32 -19 35 0
3 -8 16 -17 30 -28 44 -198 331 -198 335 0 5 -46 75 -59 92 -7 8 4 14 42 23
181 41 380 131 495 224 49 40 140 141 177 196 58 88 113 207 135 295 6 28 14
57 17 65 3 8 7 24 9 35 1 11 5 38 9 60 26 174 24 420 -4 565 -5 25 -9 45 -9
45 0 0 -3 14 -7 30 -67 302 -257 545 -530 679 -122 59 -193 83 -335 111 -14 3
-34 7 -45 10 -42 9 -174 19 -267 19 -54 1 -98 4 -98 8 0 4 -13 3 -30 -2 -17
-5 -30 -5 -30 0 0 5 -13 5 -30 0 -17 -5 -30 -5 -30 0 0 5 -13 5 -28 0 -16 -4
-36 -4 -45 1 -10 6 -18 5 -22 -1 -4 -6 -13 -7 -23 -1 -21 11 -31 11 -58 0 -12
-4 -25 -5 -28 -2 -7 8 -66 10 -66 3 0 -3 -20 -5 -45 -5 -25 0 -45 2 -45 5 0 7
-89 2 -107 -5 -7 -2 -13 -1 -13 3 0 4 -60 6 -132 5 -73 -1 -133 -2 -133 -3 0
-1 -21 -2 -48 -3 -26 -1 -47 1 -47 5 0 4 -13 3 -30 -2 -17 -5 -30 -5 -30 0 0
5 -13 5 -30 0 -17 -5 -30 -5 -30 0 0 5 -13 5 -29 0 -15 -4 -34 -4 -42 1 -7 4
-18 4 -24 -1 -6 -5 -17 -5 -25 0 -7 4 -23 4 -36 0 -12 -5 -24 -6 -27 -3 -7 7
-77 10 -77 3 0 -6 -63 -5 -76 1 -5 3 -19 3 -31 1z m1622 -566 c28 -4 59 -8 70
-9 11 -2 25 -6 30 -9 6 -3 26 -9 45 -13 70 -14 180 -75 235 -131 79 -78 125
-178 150 -324 8 -41 8 -231 1 -275 -26 -168 -67 -257 -159 -348 -49 -48 -140
-100 -200 -112 -17 -4 -36 -10 -42 -13 -5 -4 -17 -7 -25 -9 -8 -1 -44 -7 -80
-14 -45 -8 -225 -13 -572 -14 l-508 -1 0 644 0 643 503 -4 c276 -2 525 -7 552
-11z"/>
</g>
</svg>
