<svg xmlns="http://www.w3.org/2000/svg" viewBox="0 0 100 100">
  <g>
    <path d="M61,30.4H38.6v7.4H61V30.4z M59.3,36.2H40.2V32h19.1C59.3,32,59.3,36.2,59.3,36.2z"/>
    <path d="M91.8,45.7c-3,0-5.4,2.2-5.8,5h-3.4v-4.4h-6.1c-0.2-2.1-0.5-3.5-0.5-3.6L75.8,42h-6.9c0-0.9-0.1-2.4-0.4-4.3 c0.3-0.1,0.6-0.2,0.9-0.5c0.8-0.7,1.2-2,1.2-3.7c0-1.5-0.5-2.2-1.1-2.6c-0.9-0.7-2.1-0.7-2.9-0.6c-0.6-1.8-1.5-3.7-2.6-5.5l3.7-3.4 c0.4,0.2,0.8,0.3,1.3,0.3c1.6,0,2.9-1.3,2.9-2.9s-1-2.8-2.6-2.8s-2.9,1.3-2.9,2.9c0,0.5,0.1,1,0.4,1.4l-3.5,3.2 c-0.5-0.7-1.1-1.4-1.7-2c-3.1-3.1-7.1-4.7-11.8-4.7s-8.7,1.6-11.8,4.7c-0.6,0.6-1.2,1.3-1.7,2l-3.5-3.1c0.2-0.4,0.4-0.9,0.4-1.4 c0-1.6-1.3-2.9-2.9-2.9s-2.9,1.3-2.9,2.9s1.3,2.9,2.9,2.9c0.5,0,0.9-0.1,1.3-0.3l3.7,3.3c-1.1,1.8-2,3.7-2.6,5.5   c-0.7-0.1-2-0.2-2.9,0.6c-0.5,0.4-1.1,1.2-1.1,2.6c0,1.7,0.5,3,1.2,3.7c0.4,0.3,0.7,0.5,1,0.5c-0.3,1.9-0.4,3.4-0.4,4.3h-6.9   l-0.1,0.7c0,0.1-0.3,1.4-0.5,3.6h-6v4.4h-3.3c-0.4-2.8-2.8-5-5.8-5c-3.2,0-5.9,2.6-5.9,5.9c0,3.2,2.6,5.9,5.9,5.9   c1,0,2-0.3,2.8-0.7l3.2,3.4c-0.3,0.6-0.5,1.3-0.5,2c0,2.2,1.6,4,3.6,4.5v11.8h15c4.4,3.8,10.4,5.7,17.7,5.7   c7.4,0,13.3-1.9,17.7-5.7h15v-12c2.1-0.4,3.7-2.3,3.7-4.5c0-0.7-0.2-1.4-0.5-2l3.2-3.4c0.8,0.5,1.8,0.7,2.8,0.7   c3.2,0,5.9-2.6,5.9-5.9C97.7,48.3,95,45.7,91.8,45.7z M69.3,17.7c0.7,0,1.2,0.6,1.2,1.2c0,0.7-0.6,1.2-1.2,1.2   c-0.7,0-1.2-0.6-1.2-1.2C68,18.2,68.6,17.7,69.3,17.7z M30.4,20.2c-0.7,0-1.2-0.6-1.2-1.2c0-0.7,0.6-1.2,1.2-1.2   c0.7,0,1.2,0.6,1.2,1.2S31,20.2,30.4,20.2z M68.9,43.7h5.5c0.1,0.6,0.2,1.5,0.4,2.6h-20L53,43.7H68.9z M68.6,32.2   c0.3,0.2,0.4,0.7,0.4,1.3c0,1.7-0.5,2.4-0.8,2.6c-0.1-0.3-0.1-0.7-0.2-1.1c-0.2-0.9-0.4-2-0.8-3.1C67.8,31.9,68.3,31.9,68.6,32.2z    M39.2,22.6c2.8-2.8,6.4-4.2,10.6-4.2c4.3,0,7.8,1.4,10.6,4.2c5.9,5.9,6.8,16.4,6.9,19.4H51.8l-2-2.9l-2,2.9H32.3   C32.4,39,33.3,28.5,39.2,22.6z M30.5,33.5c0-0.6,0.1-1,0.4-1.3s0.9-0.3,1.4-0.3C32,33,31.7,34,31.5,35c-0.1,0.4-0.1,0.7-0.2,1.1   C31,35.9,30.5,35.2,30.5,33.5z M25.1,43.7h5.5h16l-1.8,2.6H24.7C24.9,45.1,25,44.2,25.1,43.7z M7.8,55.8c-2.3,0-4.2-1.9-4.2-4.2   s1.9-4.2,4.2-4.2s4.2,1.9,4.2,4.2C12.1,53.9,10.2,55.8,7.8,55.8z M14.9,58.8L12,55.7c0.9-0.9,1.5-2,1.7-3.3H17v5.3   C16.2,57.9,15.5,58.3,14.9,58.8z M17.8,65.1c-0.3,0-0.6-0.1-0.8-0.2c-1.1-0.4-2-1.5-2-2.8s0.8-2.4,2-2.8c0.3-0.1,0.5-0.1,0.8-0.2   h0.1c0.2,0,0.5,0,0.7,0.1c1,0.2,1.8,1,2.1,2h-2.1h-0.7V63h0.7h2.1c-0.3,1-1.1,1.8-2.1,2c-0.2,0.1-0.5,0.1-0.7,0.1   C17.9,65.1,17.9,65.1,17.8,65.1z M49.8,82.5c-6.1,0-11.1-1.4-15-4.1h30.1C60.9,81.1,55.8,82.5,49.8,82.5z M80.9,76.8H69.2h-2.3   H32.7h-2.3H18.6V66.7c2.2-0.3,3.9-2.2,3.9-4.5c0-2.3-1.7-4.2-3.9-4.5v-5.3l0,0v-1.6l0,0V48h4.3h1.7h21.1l3-4.3l1.1-1.6h0.1l1.1,1.6   l3,4.3h21h1.7H81v9.8c-2.1,0.4-3.8,2.2-3.8,4.5c0,2.2,1.6,4.1,3.8,4.5L80.9,76.8L80.9,76.8z M82.6,65c-0.3,0.1-0.5,0.1-0.8,0.1l0,0   c-0.3,0-0.5-0.1-0.8-0.1c-1-0.3-1.7-1-2-2h2h0.8v-1.6H81h-2c0.3-1,1-1.7,2-2c0.3-0.1,0.5-0.1,0.8-0.1l0,0c0.3,0,0.6,0.1,0.8,0.1   c1.2,0.4,2.1,1.5,2.1,2.8C84.6,63.5,83.8,64.6,82.6,65z M84.8,58.8c-0.6-0.6-1.4-1-2.2-1.1v-5.3H86c0.2,1.3,0.8,2.5,1.7,3.3   L84.8,58.8z M91.8,55.8c-2.3,0-4.2-1.9-4.2-4.2s1.9-4.2,4.2-4.2c2.3,0,4.2,1.9,4.2,4.2C96,53.9,94.1,55.8,91.8,55.8z"/>
    <rect x="27.3" y="53.8" width="28.1" height="1.6"/>
    <rect x="58.5" y="53.8" width="13.8" height="1.6"/>
    <rect x="49.9" y="58.8" width="22.3" height="1.6"/>
    <rect x="27.3" y="58.8" width="19.5" height="1.6"/>
    <rect x="27.3" y="63.9" width="10.2" height="1.6"/>
    <rect x="40.4" y="63.9" width="19.7" height="1.6"/>
    <rect x="63.1" y="63.9" width="9.1" height="1.6"/>
    <polygon points="27.3,69.2 27.3,70.6 28,70.6 68.3,70.6 68.3,69 27.3,69 "/>
  </g>
</svg>